<?xml version="1.0" standalone="no"?>
<!DOCTYPE svg PUBLIC "-//W3C//DTD SVG 20010904//EN"
 "http://www.w3.org/TR/2001/REC-SVG-20010904/DTD/svg10.dtd">
<svg version="1.0" xmlns="http://www.w3.org/2000/svg"
 width="850.000000pt" height="850.000000pt" viewBox="0 0 850.000000 850.000000"
 preserveAspectRatio="xMidYMid meet">
<metadata>
Created by potrace 1.11, written by Peter Selinger 2001-2013
</metadata>
<g transform="translate(0.000000,850.000000) scale(0.100000,-0.100000)"
fill="#000000" stroke="none">
<path d="M4308 8086 c-1 -2 -93 -6 -203 -9 -110 -4 -209 -8 -220 -10 -11 -3
-51 -8 -90 -11 -38 -4 -77 -9 -85 -11 -8 -2 -33 -6 -55 -10 -121 -17 -175 -28
-320 -64 -291 -73 -501 -149 -760 -277 -211 -104 -209 -103 -353 -194 -57 -36
-111 -69 -120 -75 -38 -22 -252 -185 -322 -245 -191 -163 -358 -335 -515 -530
-211 -263 -384 -544 -505 -820 -23 -52 -45 -104 -50 -115 -89 -198 -192 -555
-235 -815 -41 -247 -50 -371 -50 -660 0 -216 6 -348 19 -430 2 -14 7 -47 11
-75 3 -27 9 -66 11 -85 31 -222 123 -558 222 -810 224 -570 622 -1127 1075
-1505 27 -22 58 -49 70 -59 47 -41 246 -186 327 -238 528 -342 1126 -550 1745
-606 108 -10 600 -9 700 1 136 14 148 15 220 27 112 18 124 20 245 45 104 22
342 86 380 102 8 3 20 7 25 9 23 6 224 83 265 101 25 12 70 31 100 44 233 99
597 324 829 514 146 121 360 326 466 450 28 32 64 75 81 94 90 104 248 333
343 496 29 50 56 97 61 105 39 66 152 310 195 420 64 163 131 370 156 480 36
163 50 230 54 259 2 18 6 41 9 50 3 9 7 41 11 71 3 30 7 66 10 80 14 80 29
324 28 475 0 169 -20 455 -39 548 -2 12 -7 42 -10 67 -6 50 -60 308 -74 355
-5 17 -30 98 -56 180 -157 508 -435 998 -799 1405 -68 76 -265 269 -339 333
-39 33 -73 63 -76 67 -9 11 -234 176 -311 228 -406 271 -926 489 -1359 568
-14 2 -36 7 -50 9 -61 13 -78 15 -120 21 -25 3 -52 7 -60 9 -8 2 -46 7 -85 11
-38 3 -78 8 -88 10 -10 2 -78 6 -150 9 -73 4 -137 8 -144 10 -6 2 -13 2 -15 1z"/>
</g>
</svg>
