<?xml version="1.0" standalone="no"?>
<!DOCTYPE svg PUBLIC "-//W3C//DTD SVG 20010904//EN"
 "http://www.w3.org/TR/2001/REC-SVG-20010904/DTD/svg10.dtd">
<svg version="1.0" xmlns="http://www.w3.org/2000/svg"
 width="512.000000pt" height="512.000000pt" viewBox="0 0 512.000000 512.000000"
 preserveAspectRatio="xMidYMid meet">
<metadata>
Created by potrace 1.11, written by Peter Selinger 2001-2013
</metadata>
<g transform="translate(0.000000,512.000000) scale(0.100000,-0.100000)"
fill="#000000" stroke="none">
<path d="M2243 5104 c-450 -54 -932 -258 -1287 -544 -519 -419 -864 -1040
-941 -1696 -19 -165 -19 -443 0 -608 77 -656 422 -1277 941 -1696 290 -233
685 -423 1055 -504 338 -75 760 -75 1098 0 489 108 970 379 1310 740 377 399
623 922 686 1460 19 165 19 443 0 608 -77 656 -422 1277 -941 1696 -360 290
-839 491 -1300 545 -158 18 -466 18 -621 -1z m607 -534 c109 -14 267 -46 350
-72 94 -29 174 -58 180 -66 3 -4 23 -13 45 -21 66 -22 200 -90 231 -116 42
-35 183 -141 225 -170 77 -50 304 -290 322 -338 9 -24 -50 36 -99 100 -39 53
-151 160 -195 188 -27 16 -93 68 -104 81 -6 6 -56 40 -111 75 -55 35 -109 70
-119 77 -11 6 -31 17 -45 23 -14 6 -32 15 -40 20 -15 9 -41 21 -98 46 -18 8
-39 12 -47 9 -7 -2 -23 4 -36 15 -12 10 -35 19 -51 19 -15 0 -28 5 -28 10 0 6
-11 8 -25 4 -14 -3 -37 1 -56 10 -18 9 -43 16 -56 16 -14 0 -21 4 -18 10 4 7
-7 8 -32 4 -30 -5 -43 -1 -63 16 -20 18 -33 21 -67 16 -24 -3 -43 -2 -43 2 0
4 -78 6 -174 4 -116 -2 -176 0 -181 7 -4 8 -13 7 -28 -1 -12 -7 -47 -15 -77
-19 -30 -4 -95 -14 -144 -22 -49 -9 -93 -14 -97 -11 -4 2 -11 -1 -14 -6 -4 -7
-19 -9 -35 -5 -19 4 -31 2 -37 -8 -4 -8 -42 -26 -84 -40 -43 -14 -85 -30 -95
-36 -11 -6 -46 -22 -79 -36 -33 -14 -67 -29 -75 -35 -8 -5 -34 -19 -58 -31
-137 -69 -330 -217 -462 -356 -52 -54 -101 -101 -109 -104 -9 -3 -16 -13 -16
-21 0 -14 -7 -25 -87 -127 -21 -27 -49 -70 -63 -97 -14 -27 -30 -56 -35 -64
-30 -48 -104 -214 -134 -302 -61 -181 -84 -291 -106 -493 -5 -49 -12 -106 -15
-126 -4 -22 -2 -40 4 -44 6 -3 9 -10 6 -15 -5 -8 1 -70 21 -237 3 -24 10 -43
15 -43 7 0 8 37 4 108 -4 59 -8 130 -9 157 -4 65 12 301 24 362 6 27 15 73 21
103 10 55 34 137 71 240 65 187 176 383 308 547 185 230 388 394 647 522 308
153 634 217 981 191 149 -11 180 -16 317 -49 150 -36 200 -52 280 -90 44 -21
95 -44 113 -51 17 -7 32 -16 32 -21 0 -5 5 -9 12 -9 26 0 158 -76 169 -97 7
-13 20 -23 30 -23 10 0 24 -7 33 -15 8 -8 19 -15 25 -15 6 0 11 -3 11 -7 0 -5
32 -33 70 -63 40 -31 68 -60 66 -67 -3 -8 5 -15 20 -19 14 -4 33 -19 42 -33
10 -15 36 -44 60 -65 23 -21 42 -44 41 -50 -3 -25 3 -35 62 -94 33 -33 58 -66
55 -71 -4 -5 7 -35 24 -66 16 -30 30 -61 30 -68 0 -7 18 -49 40 -93 22 -43 40
-84 40 -91 0 -6 4 -13 9 -15 11 -4 74 -208 66 -216 -10 -11 -27 16 -31 49 -2
18 -10 42 -17 53 -7 12 -24 50 -37 86 -25 69 -69 151 -137 257 -24 36 -43 69
-43 74 0 4 -8 14 -18 21 -9 7 -46 49 -80 92 -54 68 -117 126 -136 126 -10 0
-7 -28 3 -32 15 -5 155 -174 174 -210 l18 -33 -21 25 c-12 14 -34 39 -48 55
-15 17 -35 41 -43 55 -29 44 -222 232 -253 246 -17 8 -42 22 -55 31 -19 14
-23 15 -19 3 2 -8 14 -19 26 -25 19 -8 31 -25 18 -25 -2 0 -44 27 -92 61 -92
63 -230 134 -267 137 -4 1 -29 12 -55 25 -56 28 -109 49 -137 52 -11 1 -27 5
-35 8 -8 3 -33 11 -55 17 -22 6 -47 14 -55 18 -17 7 -51 10 -175 18 -49 3 -95
10 -101 15 -6 5 -13 7 -16 4 -3 -3 -79 -7 -169 -9 -119 -2 -176 -8 -207 -19
-24 -9 -66 -19 -95 -23 -29 -4 -56 -10 -62 -14 -5 -4 -27 -10 -48 -13 -44 -7
-78 -34 -57 -47 7 -4 27 -3 44 2 29 9 99 26 206 48 169 35 457 26 605 -19 17
-5 60 -12 97 -16 37 -4 70 -10 73 -15 3 -5 37 -19 75 -31 44 -13 70 -27 70
-36 0 -8 8 -14 18 -13 28 3 62 -11 55 -23 -4 -6 2 -8 15 -5 12 3 26 1 31 -6 5
-6 33 -20 61 -31 29 -11 56 -28 61 -37 5 -10 17 -18 27 -18 9 0 29 -11 44 -25
15 -14 31 -25 36 -25 5 0 33 -22 62 -50 29 -27 56 -50 61 -50 4 0 10 -8 14
-18 3 -11 17 -24 30 -30 14 -7 29 -20 32 -29 4 -10 14 -23 22 -29 13 -10 13
-14 -2 -28 -24 -24 -21 -36 9 -36 19 0 25 4 21 14 -13 32 85 -76 133 -148 59
-87 85 -145 73 -157 -5 -5 -15 7 -22 29 -8 20 -27 52 -43 70 -15 18 -26 37
-23 43 4 5 3 14 -1 20 -5 8 -9 8 -14 -1 -5 -9 -9 -9 -14 -1 -4 6 -3 11 3 11 6
0 8 7 5 15 -4 10 -13 13 -25 10 -15 -5 -19 -1 -19 15 0 11 -7 23 -15 27 -25 9
-28 -3 -9 -31 13 -22 15 -31 5 -49 -11 -21 -11 -21 -6 6 5 27 -9 38 -19 15 -2
-7 -4 -2 -3 12 2 19 -2 24 -17 22 -15 -3 -18 1 -13 17 7 29 -37 51 -54 28 -3
-5 -25 14 -48 42 -24 28 -50 51 -58 51 -13 0 -13 -3 -3 -15 7 -9 11 -18 8 -20
-3 -3 -27 18 -55 47 -27 29 -81 80 -119 113 -37 33 -77 69 -88 79 -12 12 -21
15 -23 9 -2 -6 -13 -8 -24 -6 -16 5 -18 8 -7 14 11 7 10 11 -2 19 -19 12 -43
13 -36 1 3 -4 -10 -1 -29 8 -19 9 -34 22 -35 30 0 7 -6 11 -14 8 -8 -3 -33 4
-57 16 -37 19 -41 22 -21 25 22 3 33 42 12 42 -5 0 -10 -4 -10 -9 0 -5 -10 -7
-22 -3 -17 4 -20 2 -15 -11 3 -9 2 -19 -2 -22 -10 -5 -25 23 -22 41 2 17 -31
27 -40 12 -6 -9 -13 -9 -35 1 -22 10 -29 10 -36 -1 -6 -11 -10 -11 -17 0 -4 8
-11 13 -15 13 -20 -3 -26 1 -26 19 0 25 -41 27 -82 6 -24 -13 -28 -13 -28 -1
0 17 -40 41 -49 29 -3 -5 -35 -10 -71 -11 -36 0 -89 -6 -118 -13 -37 -8 -57
-8 -66 -1 -9 8 -18 7 -32 -3 -37 -28 -3 -37 132 -38 98 0 147 -5 204 -21 41
-11 90 -20 108 -19 24 2 39 -4 53 -20 24 -30 24 -48 -1 -48 -11 0 -19 3 -19 8
4 21 -3 34 -15 29 -7 -3 -19 0 -25 6 -8 8 -14 8 -23 -1 -7 -7 -23 -12 -38 -11
l-25 1 24 7 c21 6 22 8 7 20 -18 15 -51 7 -41 -10 5 -7 -47 -9 -178 -5 -197 6
-288 -3 -318 -30 -18 -16 -19 -16 -19 -1 0 21 2 21 -46 -2 -21 -11 -42 -17
-47 -14 -4 2 -14 -1 -22 -7 -12 -10 -15 -9 -15 4 0 9 -4 16 -10 16 -5 0 -10
-6 -10 -14 0 -16 -58 -49 -71 -40 -5 3 -12 -2 -15 -11 -4 -10 -13 -13 -24 -10
-10 3 -21 1 -25 -5 -3 -6 -10 -8 -15 -5 -5 3 -15 -3 -22 -15 -7 -11 -18 -20
-24 -20 -7 0 -14 -7 -18 -15 -3 -8 -14 -15 -24 -15 -10 0 -39 -13 -65 -30 -26
-16 -52 -30 -57 -30 -5 0 -13 -6 -17 -14 -7 -12 -56 -26 -95 -27 -22 0 -23
-13 -3 -33 14 -14 13 -17 -12 -33 -15 -9 -42 -31 -59 -47 -18 -17 -55 -51 -83
-76 -28 -24 -54 -53 -57 -65 -7 -21 -84 -123 -84 -110 0 23 -29 -22 -32 -48
-2 -22 -10 -35 -26 -42 -12 -5 -20 -14 -18 -20 2 -5 -6 -20 -17 -32 -20 -23
-33 -103 -16 -103 5 0 9 -5 9 -11 0 -6 -6 -9 -14 -6 -17 7 -36 -11 -36 -35 0
-10 -4 -18 -9 -18 -4 0 -16 -21 -26 -46 -15 -39 -15 -48 -4 -55 11 -7 9 -13
-10 -28 -21 -16 -25 -27 -25 -80 -1 -38 -5 -61 -12 -61 -17 0 -26 -63 -14 -96
9 -24 8 -31 -7 -42 -13 -10 -14 -16 -5 -19 14 -6 17 -83 2 -83 -14 0 -12 -74
2 -88 9 -9 9 -12 0 -12 -8 0 -10 -9 -6 -26 5 -19 4 -25 -5 -20 -7 5 -11 0 -11
-13 0 -12 4 -21 9 -21 4 0 11 -20 14 -45 2 -25 12 -54 22 -65 10 -11 14 -26
10 -38 -3 -11 -1 -23 5 -27 5 -3 10 -14 10 -24 0 -18 20 -95 41 -156 6 -16 15
-47 20 -67 19 -77 128 -259 209 -348 27 -29 60 -79 60 -90 0 -5 4 -10 9 -10 5
0 12 -8 16 -17 3 -10 21 -29 40 -43 19 -14 35 -30 35 -37 0 -6 8 -14 18 -17
20 -7 112 -95 112 -108 0 -4 9 -8 19 -8 10 0 29 -11 42 -25 13 -13 30 -25 37
-25 7 0 33 -13 57 -30 24 -16 50 -30 57 -30 8 0 29 -11 48 -25 19 -14 53 -30
75 -36 22 -6 42 -15 45 -20 3 -5 15 -10 25 -12 11 -1 26 -6 33 -10 6 -5 17 -5
22 -2 6 3 10 1 10 -5 0 -7 7 -9 17 -6 9 4 19 3 22 -1 17 -23 121 -44 262 -53
83 -5 154 -8 158 -6 4 3 41 7 84 10 198 14 232 20 317 54 8 3 22 7 30 8 8 1
32 9 52 18 21 9 45 16 54 16 9 0 53 24 97 53 45 29 93 58 107 65 50 26 68 38
106 75 22 20 47 44 56 53 9 9 23 14 30 11 8 -4 7 -6 -4 -6 -10 -1 -18 -9 -18
-18 1 -20 136 120 146 150 3 9 12 17 20 17 16 0 19 16 4 25 -6 4 -2 15 10 27
11 12 20 28 20 35 0 7 5 13 10 13 6 0 10 9 10 19 0 11 4 23 10 26 5 3 10 1 10
-4 0 -35 50 30 99 127 21 42 89 142 96 142 2 0 3 -12 2 -26 -1 -15 3 -28 8
-30 18 -7 53 97 91 269 11 49 22 77 31 77 9 0 11 8 7 24 -3 13 0 56 6 97 7 41
13 85 15 99 13 124 44 146 51 37 2 -29 6 -67 10 -86 6 -31 5 -33 -15 -26 -16
5 -21 2 -21 -10 0 -11 5 -15 15 -11 13 5 14 -7 9 -82 -6 -92 -21 -185 -34
-211 -12 -25 -39 -122 -46 -171 -4 -25 -11 -48 -17 -51 -11 -8 -1 -29 14 -29
5 0 9 6 9 14 0 8 5 16 12 18 10 4 14 20 17 66 1 7 10 20 21 29 11 10 20 26 20
36 0 10 11 33 25 51 14 18 25 40 25 49 0 9 5 19 11 23 14 8 7 -28 -28 -146
-14 -47 -28 -98 -32 -115 -13 -49 -62 -169 -77 -186 -8 -8 -14 -25 -14 -37 0
-12 -9 -31 -20 -42 -21 -21 -27 -50 -11 -50 5 0 15 14 23 30 7 16 16 30 19 30
4 0 10 16 13 35 4 21 17 41 30 51 13 8 26 25 29 37 3 12 16 51 29 87 18 50 28
64 41 62 11 -2 17 3 17 13 0 12 -5 15 -16 11 -10 -4 -14 -2 -10 6 2 7 12 37
21 66 9 29 23 56 31 59 8 3 14 16 14 28 0 13 4 26 9 29 4 3 11 20 15 37 12 59
14 25 5 -71 -14 -145 -66 -318 -128 -423 -17 -29 -53 -97 -80 -152 -36 -75
-63 -114 -105 -155 -31 -30 -56 -60 -56 -68 0 -11 -24 -42 -66 -83 -5 -5 -47
-39 -94 -76 -47 -37 -103 -87 -125 -110 -79 -84 -444 -281 -535 -289 -34 -2
-57 -10 -65 -21 -11 -14 -16 -15 -28 -4 -13 10 -21 9 -45 -3 -17 -9 -33 -21
-35 -28 -4 -10 -8 -10 -15 1 -6 9 -17 11 -28 7 -58 -23 -214 -37 -397 -37
-109 0 -201 2 -205 5 -4 2 -30 5 -57 7 -28 1 -54 6 -60 10 -5 4 -37 12 -70 19
-125 25 -315 100 -483 190 -66 36 -270 165 -282 179 -3 3 -32 28 -65 56 -239
198 -421 439 -547 725 -74 166 -108 275 -149 477 -28 140 -30 449 -4 641 5 37
43 208 64 289 12 47 90 248 117 303 264 535 764 934 1349 1074 192 46 480 61
675 36z m228 -570 c2 -6 10 -10 18 -10 8 0 14 -7 14 -15 0 -18 17 -20 22 -3 4
10 10 10 29 0 13 -7 16 -10 7 -8 -11 4 -18 0 -18 -9 0 -9 10 -15 28 -16 15 -1
34 -2 42 -3 8 -2 23 -3 33 -4 11 -1 15 -7 11 -13 -11 -18 -109 -4 -143 20 -16
12 -38 21 -49 21 -11 0 -28 3 -37 6 -13 5 -14 8 -3 15 10 6 9 12 -7 24 -19 16
-18 16 15 10 19 -3 37 -10 38 -15z m699 -106 c26 -26 39 -40 28 -33 -30 21
-91 79 -83 79 4 0 28 -21 55 -46z m-327 -84 c14 -11 21 -20 15 -20 -5 0 -21 9
-35 20 -14 11 -20 20 -15 20 6 0 21 -9 35 -20z m458 -45 c-3 -3 -9 2 -12 12
-6 14 -5 15 5 6 7 -7 10 -15 7 -18z m32 -25 c0 -5 -4 -10 -10 -10 -5 0 -10 5
-10 10 0 6 5 10 10 10 6 0 10 -4 10 -10z m343 -67 c15 -19 27 -41 27 -46 0 -6
-20 17 -45 51 -25 34 -45 65 -45 69 1 5 9 -2 18 -15 9 -12 29 -39 45 -59z
m-727 45 l19 -23 -25 20 c-14 11 -27 21 -29 22 -2 2 0 3 6 3 5 0 18 -10 29
-22z m415 -20 c11 -21 11 -22 -4 -9 -10 7 -17 17 -17 22 0 15 9 10 21 -13z
m-76 -210 c5 -4 17 -8 28 -8 10 0 16 -4 12 -9 -3 -5 4 -16 15 -24 21 -14 21
-14 1 -20 -14 -3 -30 5 -53 29 -18 19 -38 34 -44 34 -7 0 -14 7 -17 15 -5 12
-2 12 21 3 15 -7 31 -15 37 -20z m107 -134 c49 -120 55 -140 61 -192 5 -37 3
-41 -7 -26 -7 10 -11 26 -8 36 5 22 -26 91 -38 83 -12 -7 -23 31 -15 54 4 13
-3 29 -20 47 -28 31 -33 53 -9 50 9 -1 25 -25 36 -52z m104 -81 c7 -21 11 -39
9 -41 -5 -5 -35 66 -35 81 0 18 13 -2 26 -40z m-2785 -66 c-10 -9 -11 -8 -5 6
3 10 9 15 12 12 3 -3 0 -11 -7 -18z m3109 -212 c0 -8 -2 -15 -4 -15 -2 0 -6 7
-10 15 -3 8 -1 15 4 15 6 0 10 -7 10 -15z"/>
<path d="M2645 4349 c-10 -15 1 -23 20 -15 9 3 13 10 10 16 -8 13 -22 13 -30
-1z"/>
<path d="M3090 4290 c0 -5 7 -10 15 -10 8 0 15 5 15 10 0 6 -7 10 -15 10 -8 0
-15 -4 -15 -10z"/>
<path d="M3330 4184 c0 -8 9 -14 21 -14 11 0 19 5 17 12 -6 17 -38 19 -38 2z"/>
<path d="M2015 4180 c-4 -6 -22 -17 -41 -25 -42 -17 -38 -40 4 -24 61 23 82
35 82 46 0 15 -36 17 -45 3z"/>
<path d="M3385 4170 c-3 -6 0 -10 8 -10 8 0 20 -7 27 -15 14 -17 40 -20 40 -5
0 6 -8 13 -17 16 -10 3 -26 10 -35 15 -11 5 -19 5 -23 -1z"/>
<path d="M2310 4140 c0 -5 5 -10 10 -10 6 0 10 5 10 10 0 6 -4 10 -10 10 -5 0
-10 -4 -10 -10z"/>
<path d="M1893 4128 c-23 -11 -29 -23 -15 -31 7 -5 52 27 52 37 0 8 -11 6 -37
-6z"/>
<path d="M2339 4119 c-20 -10 -54 -19 -76 -21 -43 -4 -93 -31 -81 -43 7 -8 70
6 138 29 19 7 52 11 72 9 41 -2 56 10 39 31 -16 19 -51 17 -92 -5z"/>
<path d="M3520 4092 c0 -10 110 -75 116 -69 11 10 -22 47 -41 47 -12 0 -30 7
-41 15 -21 16 -34 19 -34 7z"/>
<path d="M2078 4060 c-7 -11 -20 -20 -28 -20 -8 0 -29 -8 -45 -19 -17 -10 -47
-23 -68 -30 -20 -7 -37 -16 -37 -21 0 -5 -9 -12 -20 -15 -11 -3 -20 -11 -20
-16 0 -17 27 -9 71 21 24 16 54 30 66 30 23 0 92 36 105 55 11 15 10 35 -2 35
-5 0 -15 -9 -22 -20z"/>
<path d="M2504 4071 c-12 -12 -1 -21 26 -21 19 0 30 5 30 14 0 13 -44 18 -56
7z"/>
<path d="M2587 4073 c-12 -11 -8 -23 8 -23 8 0 15 7 15 15 0 16 -12 20 -23 8z"/>
<path d="M2126 4054 c-4 -9 -5 -19 -3 -21 8 -8 37 10 37 23 0 19 -26 18 -34
-2z"/>
<path d="M2460 4060 c0 -5 7 -10 15 -10 8 0 15 5 15 10 0 6 -7 10 -15 10 -8 0
-15 -4 -15 -10z"/>
<path d="M2720 4061 c0 -6 5 -13 10 -16 6 -3 10 1 10 9 0 9 -4 16 -10 16 -5 0
-10 -4 -10 -9z"/>
<path d="M2335 4050 c-3 -5 1 -10 9 -10 9 0 16 5 16 10 0 6 -4 10 -9 10 -6 0
-13 -4 -16 -10z"/>
<path d="M1715 4029 c-10 -15 1 -23 20 -15 9 3 13 10 10 16 -8 13 -22 13 -30
-1z"/>
<path d="M2045 3979 c-4 -6 -5 -13 -2 -16 7 -7 27 6 27 18 0 12 -17 12 -25 -2z"/>
<path d="M1790 3930 c0 -24 4 -30 21 -30 15 0 19 5 15 15 -3 8 -1 15 4 15 5 0
7 7 4 15 -4 8 -15 15 -25 15 -14 0 -19 -7 -19 -30z"/>
<path d="M1531 3896 c-8 -10 -9 -16 -1 -21 13 -8 30 3 30 21 0 18 -14 18 -29
0z"/>
<path d="M1760 3885 c-18 -21 -3 -32 16 -13 10 9 12 18 6 22 -5 3 -15 -1 -22
-9z"/>
<path d="M1660 3833 c0 -20 18 -25 40 -11 29 18 25 28 -10 25 -16 -1 -30 -7
-30 -14z"/>
<path d="M3642 3839 c2 -7 10 -15 17 -17 8 -3 12 1 9 9 -2 7 -10 15 -17 17 -8
3 -12 -1 -9 -9z"/>
<path d="M3608 3823 c-23 -6 -23 -16 1 -37 17 -15 51 -13 51 4 0 14 -35 36
-52 33z"/>
<path d="M1553 3765 c-7 -16 -8 -27 -1 -31 14 -9 52 31 44 45 -12 18 -30 12
-43 -14z"/>
<path d="M3700 3760 c0 -5 5 -10 10 -10 6 0 10 5 10 10 0 6 -4 10 -10 10 -5 0
-10 -4 -10 -10z"/>
<path d="M3735 3720 c3 -5 10 -10 16 -10 5 0 9 5 9 10 0 6 -7 10 -16 10 -8 0
-12 -4 -9 -10z"/>
<path d="M1506 3705 c-3 -9 0 -15 9 -15 8 0 15 7 15 15 0 8 -4 15 -9 15 -5 0
-11 -7 -15 -15z"/>
<path d="M1655 3700 c-3 -5 -2 -10 4 -10 5 0 13 5 16 10 3 6 2 10 -4 10 -5 0
-13 -4 -16 -10z"/>
<path d="M3752 3668 c3 -7 13 -15 24 -17 16 -3 17 -1 5 13 -16 19 -34 21 -29
4z"/>
<path d="M1415 3640 c-3 -5 -4 -14 0 -19 3 -5 -6 -18 -19 -29 -29 -22 -53 -69
-41 -80 4 -4 10 -1 13 7 2 7 22 31 43 52 22 22 39 43 39 48 0 16 -28 33 -35
21z"/>
<path d="M3830 3641 c0 -10 30 -24 37 -17 3 3 2 9 -2 15 -8 13 -35 15 -35 2z"/>
<path d="M1290 3490 c0 -5 5 -10 10 -10 6 0 10 5 10 10 0 6 -4 10 -10 10 -5 0
-10 -4 -10 -10z"/>
<path d="M1210 3335 c0 -8 5 -15 10 -15 6 0 10 7 10 15 0 8 -4 15 -10 15 -5 0
-10 -7 -10 -15z"/>
<path d="M700 2242 c0 -19 12 -42 22 -42 14 0 5 43 -9 48 -7 2 -13 -1 -13 -6z"/>
<path d="M730 2085 c0 -8 7 -15 15 -15 8 0 15 7 15 15 0 8 -7 15 -15 15 -8 0
-15 -7 -15 -15z"/>
<path d="M747 2014 c-8 -8 1 -24 14 -24 5 0 9 7 9 15 0 15 -12 20 -23 9z"/>
<path d="M806 1861 c-8 -12 10 -41 25 -41 13 0 11 13 -4 35 -10 13 -16 15 -21
6z"/>
<path d="M3985 1809 c-4 -6 -5 -13 -2 -16 7 -7 27 6 27 18 0 12 -17 12 -25 -2z"/>
<path d="M838 1795 c-9 -15 10 -57 22 -50 7 4 7 11 2 18 -5 7 -11 19 -14 27
-2 7 -7 10 -10 5z"/>
<path d="M3945 1750 c-3 -5 1 -10 9 -10 9 0 16 5 16 10 0 6 -4 10 -9 10 -6 0
-13 -4 -16 -10z"/>
<path d="M870 1696 c0 -16 28 -42 36 -33 8 7 -14 47 -26 47 -6 0 -10 -6 -10
-14z"/>
<path d="M4041 1446 c-22 -34 -27 -56 -13 -56 8 0 33 35 44 62 13 33 -10 28
-31 -6z"/>
</g>
</svg>
